<svg xmlns="http://www.w3.org/2000/svg" width="1200" height="700" viewBox="0 0 1200 700" fill="none">
  <defs>
    <linearGradient id="bg" x1="0" y1="0" x2="1" y2="1">
      <stop offset="0%" stop-color="#FFFFFF"/>
      <stop offset="100%" stop-color="#EEF2FF"/>
    </linearGradient>
    <radialGradient id="glow" cx="0" cy="0" r="1" gradientUnits="userSpaceOnUse" gradientTransform="translate(260 140) rotate(90) scale(260 260)">
      <stop offset="0%" stop-color="#FCD34D" stop-opacity="0.5"/>
      <stop offset="100%" stop-color="#FCD34D" stop-opacity="0"/>
    </radialGradient>
    <pattern id="grid" width="48" height="48" patternUnits="userSpaceOnUse">
      <path d="M48 0H0V48" fill="none" stroke="#E2E8F0" stroke-width="1"/>
    </pattern>
    <linearGradient id="accent" x1="0" y1="0" x2="1" y2="0">
      <stop offset="0%" stop-color="#7C3AED"/>
      <stop offset="100%" stop-color="#4C1D95"/>
    </linearGradient>
  </defs>
  <rect width="1200" height="700" fill="url(#bg)"/>
  <rect width="1200" height="700" fill="url(#grid)" opacity="0.35"/>
  <circle cx="260" cy="140" r="260" fill="url(#glow)"/>
  <rect x="110" y="210" width="260" height="170" rx="24" fill="#FFFFFF" stroke="#E2E8F0"/>
  <rect x="420" y="250" width="290" height="190" rx="24" fill="#F8FAFC" stroke="#E2E8F0"/>
  <rect x="750" y="200" width="320" height="220" rx="28" fill="#FFFFFF" stroke="#E2E8F0"/>
  <path d="M160 490 C 280 420 360 470 470 420 C 610 350 720 380 840 320 C 930 270 1000 250 1080 230" stroke="url(#accent)" stroke-width="6" fill="none"/>
  <circle cx="160" cy="490" r="7" fill="#7C3AED"/>
  <circle cx="470" cy="420" r="7" fill="#7C3AED"/>
  <circle cx="840" cy="320" r="7" fill="#7C3AED"/>
  <circle cx="1080" cy="230" r="7" fill="#4C1D95"/>
</svg>
