<svg xmlns="http://www.w3.org/2000/svg" width="1200" height="700" viewBox="0 0 1200 700" fill="none">
  <defs>
    <linearGradient id="bg" x1="0" y1="0" x2="1" y2="1">
      <stop offset="0%" stop-color="#0B1018"/>
      <stop offset="100%" stop-color="#111827"/>
    </linearGradient>
    <linearGradient id="accent" x1="0" y1="0" x2="1" y2="0">
      <stop offset="0%" stop-color="#A78BFA"/>
      <stop offset="100%" stop-color="#F59E0B"/>
    </linearGradient>
  </defs>
  <rect width="1200" height="700" fill="url(#bg)"/>
  <rect x="120" y="120" width="960" height="460" rx="40" fill="#0F172A" stroke="#1F2937"/>
  <rect x="170" y="230" width="520" height="260" rx="30" fill="#111827" stroke="#1F2937"/>
  <rect x="250" y="300" width="220" height="140" rx="16" fill="#0F172A" stroke="#1F2937"/>
  <rect x="270" y="320" width="180" height="8" rx="4" fill="#334155"/>
  <path d="M270 400 L 320 370 L 370 390 L 420 340" stroke="url(#accent)" stroke-width="4" fill="none"/>
  <rect x="500" y="300" width="140" height="120" rx="14" fill="#0F172A" stroke="#1F2937"/>
  <rect x="520" y="320" width="100" height="10" rx="5" fill="#1F2937"/>
  <rect x="520" y="340" width="80" height="8" rx="4" fill="#334155"/>
  <rect x="760" y="200" width="250" height="240" rx="28" fill="#0F172A" stroke="#1F2937"/>
  <rect x="800" y="230" width="170" height="110" rx="18" fill="#111827" stroke="#1F2937"/>
  <path d="M820 330H940" stroke="#1F2937" stroke-width="4"/>
  <circle cx="260" cy="210" r="26" fill="#F59E0B"/>
  <rect x="238" y="240" width="44" height="80" rx="18" fill="#FBBF24"/>
  <circle cx="360" cy="210" r="26" fill="#A78BFA"/>
  <rect x="338" y="240" width="44" height="80" rx="18" fill="#8B5CF6"/>
  <rect x="860" y="380" width="90" height="70" rx="12" fill="#0F172A" stroke="#1F2937"/>
  <path d="M880 380 V360 C880 344 910 344 910 360 V380" stroke="#A78BFA" stroke-width="4" fill="none"/>
</svg>
