<svg xmlns="http://www.w3.org/2000/svg" width="1200" height="700" viewBox="0 0 1200 700" fill="none">
  <defs>
    <linearGradient id="bg" x1="0" y1="0" x2="1" y2="1">
      <stop offset="0%" stop-color="#FFFFFF"/>
      <stop offset="100%" stop-color="#F1F5F9"/>
    </linearGradient>
    <linearGradient id="accent" x1="0" y1="0" x2="1" y2="0">
      <stop offset="0%" stop-color="#7C3AED"/>
      <stop offset="100%" stop-color="#F59E0B"/>
    </linearGradient>
  </defs>
  <rect width="1200" height="700" fill="url(#bg)"/>
  <rect x="80" y="80" width="1040" height="540" rx="36" fill="#FFFFFF" stroke="#E2E8F0"/>
  <rect x="110" y="120" width="180" height="460" rx="24" fill="#F8FAFC" stroke="#E2E8F0"/>
  <rect x="320" y="120" width="770" height="56" rx="18" fill="#F8FAFC" stroke="#E2E8F0"/>
  <circle cx="155" cy="150" r="14" fill="#7C3AED"/>
  <rect x="140" y="190" width="120" height="12" rx="6" fill="#CBD5F5"/>
  <rect x="140" y="216" width="96" height="10" rx="5" fill="#E2E8F0"/>
  <rect x="140" y="250" width="130" height="10" rx="5" fill="#E2E8F0"/>
  <rect x="140" y="276" width="110" height="10" rx="5" fill="#E2E8F0"/>
  <rect x="320" y="200" width="230" height="90" rx="18" fill="#FFFFFF" stroke="#E2E8F0"/>
  <rect x="580" y="200" width="230" height="90" rx="18" fill="#FFFFFF" stroke="#E2E8F0"/>
  <rect x="840" y="200" width="250" height="90" rx="18" fill="#FFFFFF" stroke="#E2E8F0"/>
  <rect x="340" y="220" width="80" height="10" rx="5" fill="#CBD5F5"/>
  <rect x="600" y="220" width="90" height="10" rx="5" fill="#CBD5F5"/>
  <rect x="860" y="220" width="100" height="10" rx="5" fill="#CBD5F5"/>
  <rect x="340" y="242" width="140" height="16" rx="8" fill="#7C3AED" fill-opacity="0.15"/>
  <rect x="600" y="242" width="140" height="16" rx="8" fill="#F59E0B" fill-opacity="0.2"/>
  <rect x="860" y="242" width="160" height="16" rx="8" fill="#7C3AED" fill-opacity="0.15"/>
  <rect x="320" y="310" width="470" height="200" rx="22" fill="#FFFFFF" stroke="#E2E8F0"/>
  <rect x="820" y="310" width="270" height="200" rx="22" fill="#FFFFFF" stroke="#E2E8F0"/>
  <path d="M350 470 L 420 430 L 500 450 L 590 390 L 690 410 L 770 350" stroke="url(#accent)" stroke-width="5" fill="none"/>
  <circle cx="350" cy="470" r="5" fill="#7C3AED"/>
  <circle cx="500" cy="450" r="5" fill="#7C3AED"/>
  <circle cx="690" cy="410" r="5" fill="#F59E0B"/>
  <circle cx="770" cy="350" r="5" fill="#F59E0B"/>
  <rect x="840" y="340" width="230" height="10" rx="5" fill="#E2E8F0"/>
  <rect x="840" y="365" width="200" height="10" rx="5" fill="#E2E8F0"/>
  <rect x="840" y="390" width="210" height="10" rx="5" fill="#E2E8F0"/>
  <rect x="840" y="415" width="190" height="10" rx="5" fill="#E2E8F0"/>
  <rect x="840" y="440" width="170" height="10" rx="5" fill="#E2E8F0"/>
  <rect x="320" y="530" width="770" height="70" rx="18" fill="#F8FAFC" stroke="#E2E8F0"/>
  <rect x="340" y="552" width="180" height="12" rx="6" fill="#CBD5F5"/>
  <rect x="560" y="552" width="240" height="12" rx="6" fill="#E2E8F0"/>
  <rect x="840" y="552" width="200" height="12" rx="6" fill="#E2E8F0"/>
</svg>
