<svg xmlns="http://www.w3.org/2000/svg" width="1200" height="700" viewBox="0 0 1200 700" fill="none">
  <defs>
    <linearGradient id="bg" x1="0" y1="0" x2="1" y2="1">
      <stop offset="0%" stop-color="#FFFFFF"/>
      <stop offset="100%" stop-color="#FEFCE8"/>
    </linearGradient>
    <linearGradient id="accent" x1="0" y1="0" x2="1" y2="0">
      <stop offset="0%" stop-color="#F59E0B"/>
      <stop offset="100%" stop-color="#7C3AED"/>
    </linearGradient>
  </defs>
  <rect width="1200" height="700" fill="url(#bg)"/>
  <rect x="120" y="120" width="960" height="460" rx="40" fill="#FFFFFF" stroke="#E2E8F0"/>
  <rect x="180" y="170" width="360" height="360" rx="36" fill="#FFFFFF" stroke="#E2E8F0"/>
  <rect x="230" y="210" width="260" height="140" rx="24" fill="#F8FAFC" stroke="#E2E8F0"/>
  <path d="M260 310 C 300 270 340 320 380 280 C 420 240 460 290 490 260" stroke="url(#accent)" stroke-width="4" fill="none"/>
  <rect x="230" y="370" width="260" height="60" rx="20" fill="#FFFFFF" stroke="#E2E8F0"/>
  <rect x="230" y="450" width="260" height="60" rx="20" fill="#FFFFFF" stroke="#E2E8F0"/>
  <rect x="600" y="190" width="420" height="200" rx="28" fill="#FFFFFF" stroke="#E2E8F0"/>
  <rect x="640" y="230" width="200" height="12" rx="6" fill="#CBD5F5"/>
  <rect x="640" y="260" width="240" height="10" rx="5" fill="#E2E8F0"/>
  <rect x="600" y="420" width="200" height="140" rx="24" fill="#F8FAFC" stroke="#E2E8F0"/>
  <rect x="820" y="420" width="200" height="140" rx="24" fill="#F8FAFC" stroke="#E2E8F0"/>
  <circle cx="700" cy="490" r="28" fill="#F59E0B" fill-opacity="0.25"/>
  <circle cx="920" cy="490" r="28" fill="#7C3AED" fill-opacity="0.25"/>
  <rect x="520" y="500" width="60" height="60" rx="20" fill="#FCD34D"/>
  <rect x="535" y="515" width="30" height="30" rx="8" fill="#FFFFFF"/>
</svg>
