<svg xmlns="http://www.w3.org/2000/svg" width="1200" height="700" viewBox="0 0 1200 700" fill="none">
  <defs>
    <linearGradient id="bg" x1="0" y1="0" x2="1" y2="1">
      <stop offset="0%" stop-color="#0B1018"/>
      <stop offset="100%" stop-color="#111827"/>
    </linearGradient>
    <linearGradient id="accent" x1="0" y1="0" x2="1" y2="0">
      <stop offset="0%" stop-color="#F59E0B"/>
      <stop offset="100%" stop-color="#A78BFA"/>
    </linearGradient>
  </defs>
  <rect width="1200" height="700" fill="url(#bg)"/>
  <rect x="120" y="90" width="960" height="520" rx="36" fill="#0F172A" stroke="#1F2937"/>
  <rect x="180" y="150" width="320" height="440" rx="40" fill="#0F172A" stroke="#1F2937"/>
  <rect x="290" y="170" width="100" height="8" rx="4" fill="#1F2937"/>
  <circle cx="260" cy="175" r="6" fill="#334155"/>
  <rect x="210" y="210" width="260" height="120" rx="24" fill="#111827" stroke="#1F2937"/>
  <path d="M240 290 C 270 250 310 300 340 260 C 370 220 410 270 440 240" stroke="url(#accent)" stroke-width="4" fill="none"/>
  <rect x="210" y="350" width="260" height="80" rx="20" fill="#0F172A" stroke="#1F2937"/>
  <rect x="210" y="450" width="260" height="80" rx="20" fill="#0F172A" stroke="#1F2937"/>
  <rect x="540" y="160" width="480" height="220" rx="28" fill="#0F172A" stroke="#1F2937"/>
  <rect x="570" y="190" width="180" height="14" rx="7" fill="#334155"/>
  <rect x="570" y="220" width="220" height="12" rx="6" fill="#1F2937"/>
  <rect x="570" y="245" width="200" height="12" rx="6" fill="#1F2937"/>
  <rect x="540" y="410" width="220" height="180" rx="24" fill="#111827" stroke="#1F2937"/>
  <rect x="780" y="410" width="240" height="180" rx="24" fill="#111827" stroke="#1F2937"/>
  <circle cx="650" cy="500" r="36" fill="#F59E0B" fill-opacity="0.25"/>
  <circle cx="900" cy="500" r="36" fill="#A78BFA" fill-opacity="0.25"/>
</svg>
