<svg xmlns="http://www.w3.org/2000/svg" width="1200" height="700" viewBox="0 0 1200 700" fill="none">
  <defs>
    <linearGradient id="bg" x1="0" y1="0" x2="1" y2="1">
      <stop offset="0%" stop-color="#0B1018"/>
      <stop offset="100%" stop-color="#131A2A"/>
    </linearGradient>
  </defs>
  <rect width="1200" height="700" fill="url(#bg)"/>
  <rect x="110" y="100" width="980" height="500" rx="42" fill="#0F172A" stroke="#1F2937"/>
  <rect x="170" y="150" width="520" height="320" rx="30" fill="#111827" stroke="#1F2937"/>
  <rect x="740" y="150" width="280" height="180" rx="26" fill="#0F172A" stroke="#1F2937"/>
  <rect x="740" y="360" width="280" height="190" rx="26" fill="#0F172A" stroke="#1F2937"/>
  <rect x="210" y="190" width="140" height="80" rx="16" fill="#7C3AED" fill-opacity="0.25"/>
  <rect x="370" y="190" width="140" height="80" rx="16" fill="#F59E0B" fill-opacity="0.25"/>
  <rect x="210" y="290" width="300" height="12" rx="6" fill="#1F2937"/>
  <rect x="210" y="320" width="260" height="12" rx="6" fill="#1F2937"/>
  <rect x="210" y="350" width="280" height="12" rx="6" fill="#1F2937"/>
  <rect x="210" y="380" width="220" height="12" rx="6" fill="#1F2937"/>
  <rect x="780" y="190" width="200" height="12" rx="6" fill="#334155"/>
  <rect x="780" y="220" width="160" height="10" rx="5" fill="#1F2937"/>
  <rect x="780" y="250" width="180" height="10" rx="5" fill="#1F2937"/>
  <rect x="780" y="400" width="200" height="12" rx="6" fill="#334155"/>
  <rect x="780" y="430" width="160" height="10" rx="5" fill="#1F2937"/>
  <rect x="780" y="460" width="180" height="10" rx="5" fill="#1F2937"/>
  <circle cx="650" cy="520" r="30" fill="#A78BFA"/>
  <circle cx="690" cy="520" r="30" fill="#F59E0B"/>
  <circle cx="610" cy="520" r="30" fill="#1F2937"/>
  <rect x="520" y="470" width="180" height="10" rx="5" fill="#1F2937"/>
</svg>
