<svg xmlns="http://www.w3.org/2000/svg" width="1200" height="700" viewBox="0 0 1200 700" fill="none">
  <defs>
    <linearGradient id="bg" x1="0" y1="0" x2="1" y2="1">
      <stop offset="0%" stop-color="#0B1018"/>
      <stop offset="100%" stop-color="#131A2A"/>
    </linearGradient>
    <linearGradient id="accent" x1="0" y1="0" x2="1" y2="0">
      <stop offset="0%" stop-color="#A78BFA"/>
      <stop offset="100%" stop-color="#7C3AED"/>
    </linearGradient>
  </defs>
  <rect width="1200" height="700" fill="url(#bg)"/>
  <rect x="90" y="80" width="1020" height="540" rx="36" fill="#0F172A" stroke="#1F2937"/>
  <rect x="130" y="120" width="280" height="460" rx="24" fill="#111827" stroke="#1F2937"/>
  <rect x="430" y="120" width="420" height="250" rx="24" fill="#0F172A" stroke="#1F2937"/>
  <rect x="870" y="120" width="200" height="250" rx="24" fill="#0F172A" stroke="#1F2937"/>
  <rect x="430" y="390" width="640" height="190" rx="24" fill="#111827" stroke="#1F2937"/>
  <rect x="160" y="150" width="140" height="14" rx="7" fill="#334155"/>
  <rect x="160" y="180" width="200" height="12" rx="6" fill="#1F2937"/>
  <rect x="160" y="206" width="180" height="12" rx="6" fill="#1F2937"/>
  <rect x="160" y="240" width="110" height="56" rx="10" fill="#A78BFA" fill-opacity="0.2"/>
  <rect x="280" y="240" width="110" height="56" rx="10" fill="#F59E0B" fill-opacity="0.2"/>
  <rect x="160" y="320" width="200" height="12" rx="6" fill="#1F2937"/>
  <rect x="160" y="346" width="160" height="12" rx="6" fill="#1F2937"/>
  <rect x="160" y="372" width="190" height="12" rx="6" fill="#1F2937"/>
  <rect x="470" y="150" width="300" height="140" rx="18" fill="#111827" stroke="#1F2937"/>
  <path d="M470 320H820" stroke="url(#accent)" stroke-width="4"/>
  <rect x="900" y="150" width="140" height="40" rx="12" fill="#A78BFA" fill-opacity="0.22"/>
  <rect x="900" y="205" width="140" height="40" rx="12" fill="#7C3AED" fill-opacity="0.2"/>
  <rect x="900" y="260" width="140" height="40" rx="12" fill="#F59E0B" fill-opacity="0.22"/>
  <rect x="470" y="420" width="140" height="120" rx="16" fill="#0F172A" stroke="#1F2937"/>
  <rect x="630" y="420" width="140" height="120" rx="16" fill="#0F172A" stroke="#1F2937"/>
  <rect x="790" y="420" width="140" height="120" rx="16" fill="#0F172A" stroke="#1F2937"/>
  <rect x="950" y="420" width="100" height="120" rx="16" fill="#0F172A" stroke="#1F2937"/>
</svg>
