<svg xmlns="http://www.w3.org/2000/svg" width="1200" height="700" viewBox="0 0 1200 700" fill="none">
  <defs>
    <linearGradient id="bg" x1="0" y1="0" x2="1" y2="1">
      <stop offset="0%" stop-color="#0B1018"/>
      <stop offset="100%" stop-color="#0F172A"/>
    </linearGradient>
    <linearGradient id="accent" x1="0" y1="0" x2="1" y2="0">
      <stop offset="0%" stop-color="#A78BFA"/>
      <stop offset="100%" stop-color="#22D3EE"/>
    </linearGradient>
  </defs>
  <rect width="1200" height="700" fill="url(#bg)"/>
  <rect x="100" y="100" width="1000" height="500" rx="42" fill="#0F172A" stroke="#1F2937"/>
  <rect x="160" y="150" width="620" height="320" rx="30" fill="#0F172A" stroke="#1F2937"/>
  <rect x="820" y="150" width="240" height="320" rx="30" fill="#111827" stroke="#1F2937"/>
  <path d="M200 420 L 300 360 L 420 390 L 540 320 L 660 350 L 760 280" stroke="url(#accent)" stroke-width="5" fill="none"/>
  <rect x="200" y="180" width="120" height="10" rx="5" fill="#334155"/>
  <rect x="200" y="205" width="160" height="12" rx="6" fill="#1F2937"/>
  <rect x="200" y="230" width="140" height="12" rx="6" fill="#1F2937"/>
  <rect x="200" y="260" width="420" height="8" rx="4" fill="#1F2937"/>
  <circle cx="890" cy="240" r="70" fill="#1F2937"/>
  <circle cx="890" cy="240" r="70" fill="none" stroke="#A78BFA" stroke-width="14" stroke-dasharray="160 120"/>
  <circle cx="890" cy="240" r="45" fill="none" stroke="#22D3EE" stroke-width="10" stroke-dasharray="80 60"/>
  <rect x="840" y="340" width="160" height="12" rx="6" fill="#334155"/>
  <rect x="840" y="365" width="130" height="10" rx="5" fill="#1F2937"/>
  <rect x="840" y="390" width="110" height="10" rx="5" fill="#1F2937"/>
  <rect x="160" y="490" width="340" height="90" rx="22" fill="#111827" stroke="#1F2937"/>
  <rect x="520" y="490" width="340" height="90" rx="22" fill="#111827" stroke="#1F2937"/>
  <rect x="180" y="520" width="120" height="10" rx="5" fill="#334155"/>
  <rect x="540" y="520" width="120" height="10" rx="5" fill="#334155"/>
</svg>
