<svg xmlns="http://www.w3.org/2000/svg" width="1200" height="700" viewBox="0 0 1200 700" fill="none">
  <defs>
    <linearGradient id="bg" x1="0" y1="0" x2="1" y2="1">
      <stop offset="0%" stop-color="#FFFFFF"/>
      <stop offset="100%" stop-color="#E0F2FE"/>
    </linearGradient>
    <pattern id="grid" width="60" height="60" patternUnits="userSpaceOnUse">
      <path d="M60 0H0V60" fill="none" stroke="#E2E8F0" stroke-width="1"/>
    </pattern>
    <linearGradient id="line" x1="0" y1="0" x2="1" y2="0">
      <stop offset="0%" stop-color="#7C3AED"/>
      <stop offset="100%" stop-color="#06B6D4"/>
    </linearGradient>
  </defs>
  <rect width="1200" height="700" fill="url(#bg)"/>
  <rect width="1200" height="700" fill="url(#grid)" opacity="0.35"/>
  <rect x="120" y="140" width="960" height="420" rx="32" fill="#FFFFFF" stroke="#E2E8F0"/>
  <path d="M180 470 L 300 420 L 420 455 L 540 360 L 660 395 L 780 310 L 900 340 L 1020 260" stroke="url(#line)" stroke-width="6" fill="none"/>
  <circle cx="180" cy="470" r="7" fill="#7C3AED"/>
  <circle cx="420" cy="455" r="7" fill="#8B5CF6"/>
  <circle cx="540" cy="360" r="7" fill="#7C3AED"/>
  <circle cx="780" cy="310" r="7" fill="#22D3EE"/>
  <circle cx="1020" cy="260" r="7" fill="#06B6D4"/>
  <path d="M220 520H940" stroke="#E2E8F0" stroke-width="3"/>
  <path d="M220 260H940" stroke="#E2E8F0" stroke-width="3"/>
</svg>
