<svg xmlns="http://www.w3.org/2000/svg" width="1200" height="700" viewBox="0 0 1200 700" fill="none">
  <defs>
    <linearGradient id="bg" x1="0" y1="0" x2="1" y2="1">
      <stop offset="0%" stop-color="#FFFFFF"/>
      <stop offset="100%" stop-color="#E0F2FE"/>
    </linearGradient>
    <linearGradient id="line" x1="0" y1="0" x2="1" y2="0">
      <stop offset="0%" stop-color="#7C3AED"/>
      <stop offset="100%" stop-color="#06B6D4"/>
    </linearGradient>
  </defs>
  <rect width="1200" height="700" fill="url(#bg)"/>
  <rect x="80" y="90" width="1040" height="520" rx="36" fill="#FFFFFF" stroke="#E2E8F0"/>
  <rect x="110" y="130" width="300" height="90" rx="18" fill="#FFFFFF" stroke="#E2E8F0"/>
  <rect x="430" y="130" width="300" height="90" rx="18" fill="#FFFFFF" stroke="#E2E8F0"/>
  <rect x="750" y="130" width="330" height="90" rx="18" fill="#FFFFFF" stroke="#E2E8F0"/>
  <rect x="140" y="156" width="120" height="12" rx="6" fill="#CBD5F5"/>
  <rect x="450" y="156" width="120" height="12" rx="6" fill="#CBD5F5"/>
  <rect x="770" y="156" width="120" height="12" rx="6" fill="#CBD5F5"/>
  <rect x="140" y="178" width="180" height="16" rx="8" fill="#7C3AED" fill-opacity="0.16"/>
  <rect x="450" y="178" width="180" height="16" rx="8" fill="#06B6D4" fill-opacity="0.18"/>
  <rect x="770" y="178" width="200" height="16" rx="8" fill="#7C3AED" fill-opacity="0.16"/>
  <rect x="110" y="250" width="670" height="340" rx="24" fill="#FFFFFF" stroke="#E2E8F0"/>
  <rect x="810" y="250" width="300" height="340" rx="24" fill="#FFFFFF" stroke="#E2E8F0"/>
  <path d="M150 530 L 240 460 L 330 500 L 430 420 L 540 450 L 650 360 L 760 390" stroke="url(#line)" stroke-width="5" fill="none"/>
  <rect x="170" y="480" width="18" height="60" rx="6" fill="#CBD5F5"/>
  <rect x="210" y="460" width="18" height="80" rx="6" fill="#A78BFA"/>
  <rect x="250" y="440" width="18" height="100" rx="6" fill="#F59E0B"/>
  <rect x="290" y="470" width="18" height="70" rx="6" fill="#CBD5F5"/>
  <circle cx="960" cy="360" r="80" fill="none" stroke="#E2E8F0" stroke-width="18"/>
  <circle cx="960" cy="360" r="80" fill="none" stroke="#7C3AED" stroke-width="18" stroke-linecap="round" stroke-dasharray="180 120"/>
  <circle cx="960" cy="360" r="50" fill="none" stroke="#06B6D4" stroke-width="12" stroke-linecap="round" stroke-dasharray="90 60"/>
  <rect x="860" y="470" width="200" height="12" rx="6" fill="#E2E8F0"/>
  <rect x="860" y="495" width="180" height="12" rx="6" fill="#E2E8F0"/>
  <rect x="860" y="520" width="160" height="12" rx="6" fill="#E2E8F0"/>
</svg>
