<svg xmlns="http://www.w3.org/2000/svg" width="1200" height="700" viewBox="0 0 1200 700" fill="none">
  <defs>
    <linearGradient id="bg" x1="0" y1="0" x2="1" y2="1">
      <stop offset="0%" stop-color="#0B1018"/>
      <stop offset="100%" stop-color="#0F172A"/>
    </linearGradient>
    <linearGradient id="route" x1="0" y1="0" x2="1" y2="0">
      <stop offset="0%" stop-color="#A78BFA"/>
      <stop offset="100%" stop-color="#38BDF8"/>
    </linearGradient>
  </defs>
  <rect width="1200" height="700" fill="url(#bg)"/>
  <rect x="110" y="110" width="980" height="480" rx="40" fill="#0F172A" stroke="#1F2937"/>
  <rect x="170" y="160" width="520" height="380" rx="30" fill="#111827" stroke="#1F2937"/>
  <rect x="730" y="200" width="270" height="200" rx="28" fill="#0F172A" stroke="#1F2937"/>
  <rect x="760" y="230" width="210" height="12" rx="6" fill="#334155"/>
  <rect x="760" y="260" width="190" height="10" rx="5" fill="#1F2937"/>
  <path d="M220 470 C 300 420 350 450 430 390 C 510 330 590 360 660 300" stroke="url(#route)" stroke-width="6" fill="none"/>
  <circle cx="220" cy="470" r="9" fill="#A78BFA"/>
  <circle cx="430" cy="390" r="9" fill="#8B5CF6"/>
  <circle cx="660" cy="300" r="9" fill="#38BDF8"/>
  <rect x="730" y="430" width="270" height="120" rx="24" fill="#0F172A" stroke="#1F2937"/>
  <rect x="760" y="470" width="160" height="10" rx="5" fill="#334155"/>
  <rect x="760" y="495" width="180" height="10" rx="5" fill="#1F2937"/>
  <rect x="780" y="330" width="160" height="70" rx="18" fill="#111827" stroke="#1F2937"/>
  <circle cx="260" cy="220" r="26" fill="#A78BFA"/>
  <rect x="238" y="245" width="44" height="90" rx="18" fill="#7C3AED"/>
  <rect x="310" y="245" width="44" height="90" rx="18" fill="#7C3AED"/>
</svg>
