<svg xmlns="http://www.w3.org/2000/svg" width="1200" height="700" viewBox="0 0 1200 700" fill="none">
  <defs>
    <linearGradient id="bg" x1="0" y1="0" x2="1" y2="1">
      <stop offset="0%" stop-color="#FFFFFF"/>
      <stop offset="100%" stop-color="#F0F9FF"/>
    </linearGradient>
    <linearGradient id="route" x1="0" y1="0" x2="1" y2="0">
      <stop offset="0%" stop-color="#7C3AED"/>
      <stop offset="100%" stop-color="#0EA5E9"/>
    </linearGradient>
  </defs>
  <rect width="1200" height="700" fill="url(#bg)"/>
  <path d="M140 520 C 260 420 360 480 460 400 C 560 320 700 360 820 280 C 940 200 1020 220 1080 160" stroke="url(#route)" stroke-width="8" fill="none"/>
  <circle cx="140" cy="520" r="10" fill="#7C3AED"/>
  <circle cx="460" cy="400" r="10" fill="#8B5CF6"/>
  <circle cx="820" cy="280" r="10" fill="#38BDF8"/>
  <circle cx="1080" cy="160" r="10" fill="#0EA5E9"/>
  <rect x="200" y="160" width="360" height="220" rx="32" fill="#FFFFFF" stroke="#E2E8F0"/>
  <rect x="620" y="420" width="320" height="180" rx="30" fill="#FFFFFF" stroke="#E2E8F0"/>
  <path d="M240 220H520" stroke="#E2E8F0" stroke-width="4"/>
  <path d="M660 470H900" stroke="#E2E8F0" stroke-width="4"/>
</svg>
