<svg xmlns="http://www.w3.org/2000/svg" width="1200" height="700" viewBox="0 0 1200 700" fill="none">
  <defs>
    <linearGradient id="bg" x1="0" y1="0" x2="1" y2="1">
      <stop offset="0%" stop-color="#FFFFFF"/>
      <stop offset="100%" stop-color="#F0F9FF"/>
    </linearGradient>
    <linearGradient id="route" x1="0" y1="0" x2="1" y2="0">
      <stop offset="0%" stop-color="#7C3AED"/>
      <stop offset="100%" stop-color="#0EA5E9"/>
    </linearGradient>
    <pattern id="grid" width="60" height="60" patternUnits="userSpaceOnUse">
      <path d="M60 0H0V60" fill="none" stroke="#E2E8F0" stroke-width="1"/>
    </pattern>
  </defs>
  <rect width="1200" height="700" fill="url(#bg)"/>
  <rect x="90" y="90" width="1020" height="520" rx="36" fill="#FFFFFF" stroke="#E2E8F0"/>
  <rect x="130" y="130" width="640" height="440" rx="28" fill="#F8FAFC" stroke="#E2E8F0"/>
  <rect x="130" y="130" width="640" height="440" rx="28" fill="url(#grid)" opacity="0.4"/>
  <path d="M170 480 C 260 420 330 460 420 390 C 520 310 600 340 690 280" stroke="url(#route)" stroke-width="6" fill="none"/>
  <circle cx="170" cy="480" r="9" fill="#7C3AED"/>
  <circle cx="420" cy="390" r="9" fill="#8B5CF6"/>
  <circle cx="690" cy="280" r="9" fill="#0EA5E9"/>
  <rect x="800" y="150" width="260" height="180" rx="24" fill="#FFFFFF" stroke="#E2E8F0"/>
  <rect x="820" y="190" width="220" height="12" rx="6" fill="#CBD5F5"/>
  <rect x="820" y="220" width="200" height="10" rx="5" fill="#E2E8F0"/>
  <rect x="800" y="360" width="260" height="210" rx="24" fill="#FFFFFF" stroke="#E2E8F0"/>
  <rect x="820" y="400" width="160" height="12" rx="6" fill="#CBD5F5"/>
  <rect x="820" y="430" width="200" height="10" rx="5" fill="#E2E8F0"/>
  <rect x="820" y="455" width="180" height="10" rx="5" fill="#E2E8F0"/>
  <rect x="820" y="480" width="120" height="28" rx="14" fill="#7C3AED" fill-opacity="0.15"/>
</svg>
