<svg xmlns="http://www.w3.org/2000/svg" width="1200" height="700" viewBox="0 0 1200 700" fill="none">
  <defs>
    <linearGradient id="bg" x1="0" y1="0" x2="1" y2="1">
      <stop offset="0%" stop-color="#FFFFFF"/>
      <stop offset="100%" stop-color="#FFF7ED"/>
    </linearGradient>
    <linearGradient id="accent" x1="0" y1="0" x2="1" y2="0">
      <stop offset="0%" stop-color="#F59E0B"/>
      <stop offset="100%" stop-color="#7C3AED"/>
    </linearGradient>
  </defs>
  <rect width="1200" height="700" fill="url(#bg)"/>
  <rect x="90" y="90" width="1020" height="520" rx="36" fill="#FFFFFF" stroke="#E2E8F0"/>
  <rect x="130" y="130" width="300" height="90" rx="18" fill="#FFFFFF" stroke="#E2E8F0"/>
  <rect x="450" y="130" width="300" height="90" rx="18" fill="#FFFFFF" stroke="#E2E8F0"/>
  <rect x="770" y="130" width="300" height="90" rx="18" fill="#FFFFFF" stroke="#E2E8F0"/>
  <rect x="160" y="156" width="120" height="12" rx="6" fill="#FCD34D"/>
  <rect x="480" y="156" width="120" height="12" rx="6" fill="#C4B5FD"/>
  <rect x="800" y="156" width="120" height="12" rx="6" fill="#FCD34D"/>
  <rect x="130" y="250" width="620" height="330" rx="24" fill="#FFFFFF" stroke="#E2E8F0"/>
  <rect x="780" y="250" width="300" height="330" rx="24" fill="#FFFFFF" stroke="#E2E8F0"/>
  <path d="M170 310H700" stroke="#E2E8F0" stroke-width="3"/>
  <path d="M170 370H700" stroke="#E2E8F0" stroke-width="3"/>
  <path d="M170 430H700" stroke="#E2E8F0" stroke-width="3"/>
  <path d="M170 490H700" stroke="#E2E8F0" stroke-width="3"/>
  <circle cx="200" cy="310" r="10" fill="#F59E0B"/>
  <circle cx="300" cy="370" r="10" fill="#F59E0B"/>
  <circle cx="420" cy="430" r="10" fill="#7C3AED"/>
  <circle cx="560" cy="490" r="10" fill="#7C3AED"/>
  <path d="M200 310 L 560 490" stroke="url(#accent)" stroke-width="4"/>
  <rect x="810" y="290" width="240" height="36" rx="18" fill="#F59E0B" fill-opacity="0.2"/>
  <rect x="810" y="350" width="200" height="36" rx="18" fill="#F59E0B" fill-opacity="0.2"/>
  <rect x="810" y="410" width="160" height="36" rx="18" fill="#7C3AED" fill-opacity="0.2"/>
  <rect x="810" y="470" width="120" height="36" rx="18" fill="#7C3AED" fill-opacity="0.2"/>
</svg>
